<?xml version="1.0" encoding="UTF-8"?>
<svg xmlns="http://www.w3.org/2000/svg" xmlns:xlink="http://www.w3.org/1999/xlink" width="60px" height="60px" viewBox="0 0 60 60" version="1.1">
<g id="surface1">
<path style=" stroke:none;fill-rule:evenodd;fill:rgb(100%,100%,100%);fill-opacity:1;" d="M 33.125 28.75 L 24.375 28.75 C 24.03125 28.75 23.75 29.035156 23.75 29.375 C 23.75 29.71875 24.03125 30 24.375 30 L 33.125 30 C 33.46875 30 33.75 29.71875 33.75 29.375 C 33.75 29.035156 33.46875 28.75 33.125 28.75 Z M 36.25 37.5 C 36.25 38.195312 35.695312 38.75 35 38.75 L 22.5 38.75 C 21.804688 38.75 21.25 38.195312 21.25 37.5 L 21.25 25 C 21.25 24.304688 21.804688 23.75 22.5 23.75 L 24.375 23.75 L 24.375 26.25 L 33.125 26.25 L 33.125 23.75 L 35 23.75 C 35.695312 23.75 36.25 24.304688 36.25 25 Z M 25.625 22.5 L 27.015625 22.5 C 27.015625 21.804688 27.792969 21.25 28.75 21.25 C 29.703125 21.25 30.488281 21.804688 30.488281 22.5 L 31.875 22.5 L 31.875 25 L 25.625 25 Z M 35 22.5 L 33.125 22.5 L 33.125 21.25 L 31.445312 21.25 C 30.898438 20.507812 29.902344 20 28.75 20 C 27.59375 20 26.601562 20.507812 26.054688 21.25 L 24.375 21.25 L 24.375 22.5 L 22.5 22.5 C 21.121094 22.5 20 23.625 20 25 L 20 37.5 C 20 38.878906 21.121094 40 22.5 40 L 35 40 C 36.375 40 37.5 38.878906 37.5 37.5 L 37.5 25 C 37.5 23.625 36.375 22.5 35 22.5 Z M 33.125 35 L 24.375 35 C 24.03125 35 23.75 35.28125 23.75 35.625 C 23.75 35.96875 24.03125 36.25 24.375 36.25 L 33.125 36.25 C 33.46875 36.25 33.75 35.96875 33.75 35.625 C 33.75 35.28125 33.46875 35 33.125 35 Z M 33.125 31.875 L 24.375 31.875 C 24.03125 31.875 23.75 32.15625 23.75 32.5 C 23.75 32.839844 24.03125 33.125 24.375 33.125 L 33.125 33.125 C 33.46875 33.125 33.75 32.839844 33.75 32.5 C 33.75 32.15625 33.46875 31.875 33.125 31.875 Z M 33.125 31.875 "/>
</g>
</svg>
